<svg
  viewBox="0 0 60 60"
  fill="none"
  xmlns="http://www.w3.org/2000/svg"
>
  <path
    d="M40.0757 25.0757C40.808 24.3436 40.808 23.1564 40.0757 22.4242C39.3435 21.6919 38.1565 21.6919 37.4242 22.4242L26.25 33.5982L22.5758 29.9242C21.8436 29.192 20.6564 29.192 19.9242 29.9242C19.1919 30.6565 19.1919 31.8435 19.9242 32.5757L24.9242 37.5757C25.6565 38.308 26.8435 38.308 27.5757 37.5757L40.0757 25.0757Z"
    fill="white"
  />
  <path
    fill-rule="evenodd"
    clip-rule="evenodd"
    d="M30 3.125C15.1573 3.125 3.125 15.1573 3.125 30C3.125 44.8427 15.1573 56.875 30 56.875C44.8427 56.875 56.875 44.8427 56.875 30C56.875 15.1573 44.8427 3.125 30 3.125ZM6.875 30C6.875 17.2284 17.2284 6.875 30 6.875C42.7715 6.875 53.125 17.2284 53.125 30C53.125 42.7715 42.7715 53.125 30 53.125C17.2284 53.125 6.875 42.7715 6.875 30Z"
    fill="white"
  />
</svg>