<svg width="147" height="89" viewBox="0 0 147 89"  xmlns="http://www.w3.org/2000/svg">
<path d="M27.6054 87.3919C27.2045 87.5379 26.6504 87.5125 25.9432 87.3159C25.2906 87.1447 24.8987 86.8788 24.7673 86.5179C22.2573 79.6218 20.4693 73.2122 19.4031 67.2889C18.8299 64.0922 18.3824 61.054 18.0608 58.1744C17.7246 55.2546 17.5816 52.4915 17.6319 49.8852L17.6637 46.6044C17.6636 46.105 17.8639 45.7823 18.2649 45.6364C19.0267 45.3592 19.5243 45.5413 19.7578 46.1828C19.8599 46.4634 19.8875 47.2253 19.8405 48.4683C19.7789 49.6713 19.7958 51.5267 19.8913 54.0346C20.204 63.5013 22.3449 73.6873 26.3142 84.5928C26.8826 83.6594 27.5656 82.2303 28.3634 80.3053C29.1611 78.3804 30.0061 75.9615 30.8983 73.0487C31.7068 70.5296 32.5918 67.8464 33.5533 64.9992C34.5404 62.0973 35.5875 59.1735 36.6948 56.2278C37.7875 53.242 38.8966 50.3637 40.0222 47.593C41.1733 44.7676 42.2971 42.1791 43.3936 39.8276C47.3863 31.3366 50.806 26.573 53.6526 25.537C53.9734 25.4202 54.2959 25.3709 54.6204 25.389C54.9703 25.3525 55.2328 25.5748 55.408 26.0559C55.6414 26.6974 55.4575 27.1276 54.8561 27.3465C54.6957 27.4048 54.5481 27.4359 54.4132 27.4396C54.2783 27.4432 54.1307 27.4743 53.9703 27.5326C51.8454 28.3061 48.8448 32.8489 44.9687 41.1613C43.6427 44.005 42.4807 46.6755 41.4826 49.1728C40.4699 51.63 39.4992 54.14 38.5704 56.7029C37.6817 59.2512 36.753 62.0638 35.7843 65.1407C34.801 68.1775 33.6556 71.7046 32.3481 75.7221C31.2883 78.9229 30.3632 81.6207 29.5728 83.8154C28.7824 86.01 28.1266 87.2022 27.6054 87.3919ZM52.5277 75.5967C49.2801 76.7787 46.9924 75.5455 45.6644 71.8969C45.0515 70.213 44.8104 68.303 44.941 66.1668C45.0716 64.0306 45.5138 61.94 46.2678 59.8947C47.0072 57.8094 47.9963 55.9738 49.2352 54.3877C50.5143 52.7871 51.9957 51.6803 53.6797 51.0674C55.1631 50.5274 56.4499 50.6947 57.5401 51.5693C58.6303 52.4438 59.4235 53.5627 59.9197 54.9259C60.5763 56.7301 60.8868 58.7057 60.8509 60.8528C60.8005 62.9598 60.4384 65.0213 59.7647 67.0373C59.0909 69.0533 58.1473 70.827 56.9339 72.3584C55.7204 73.8898 54.2517 74.9692 52.5277 75.5967ZM51.7671 73.6941C52.0077 73.6065 52.1407 73.5354 52.1662 73.4807C53.6569 72.7111 54.8959 71.6245 55.8834 70.2208C56.8708 68.817 57.5976 67.2585 58.0637 65.5451C58.5553 63.777 58.7698 61.9962 58.7073 60.2027C58.6448 58.4093 58.329 56.7307 57.7599 55.1671C57.4243 54.2449 56.901 53.6181 56.1901 53.2866C55.4791 52.9551 54.7228 52.9353 53.9209 53.2271C52.7582 53.6503 51.6904 54.5838 50.7175 56.0276C49.7848 57.4568 49.007 59.1248 48.3842 61.0314C47.8015 62.9235 47.4485 64.8228 47.3251 66.7293C47.1871 68.5957 47.3516 70.1704 47.8186 71.4534C48.6066 73.6185 49.9228 74.3653 51.7671 73.6941ZM75.4967 68.5307C73.3717 69.3041 71.4817 69.2883 69.8265 68.4831C68.1713 67.678 66.9643 66.233 66.2055 64.1482C64.8921 60.5398 65.166 55.9904 67.0271 50.5001C68.0032 47.6929 69.189 45.3997 70.5846 43.6204C72.0058 41.7864 73.5182 40.5776 75.1219 39.9939C76.5252 39.4831 77.7828 39.5702 78.8948 40.2552C80.0069 40.9402 80.8255 42.0044 81.3509 43.4477C81.6719 44.3298 81.88 45.2757 81.975 46.2854C82.0482 46.9853 81.8442 47.4228 81.363 47.5979C80.6013 47.8751 80.0671 47.5928 79.7607 46.7508C79.6294 46.39 79.5217 45.907 79.4377 45.3019C79.3791 44.6422 79.2477 44.0316 79.0434 43.4703C78.4597 41.8666 77.386 41.3492 75.8224 41.9184C74.9804 42.2248 74.0675 42.8976 73.0836 43.9368C72.1397 44.9614 71.2689 46.1865 70.471 47.612C69.6585 48.9975 69.0374 50.4722 68.6078 52.0361C67.2494 56.6623 67.0956 60.4188 68.1463 63.3056C69.3575 66.6333 71.4666 67.75 74.4736 66.6555C76.358 65.9696 78.0601 65.0323 79.5798 63.8435C81.085 62.6146 82.6646 60.6548 84.3187 57.9641C85.3535 56.3162 86.1077 55.02 86.5813 54.0758C87.0549 53.1315 87.5741 52.1253 88.1388 51.0571C88.321 50.8091 88.5123 50.6487 88.7128 50.5757C88.9132 50.5027 89.1356 50.4899 89.3798 50.5372C89.6241 50.5846 89.79 50.7285 89.8775 50.9691C90.0381 51.4101 89.8633 52.1775 89.3533 53.2712C88.9052 54.1608 88.4316 55.105 87.9325 56.104C87.4188 57.0628 86.5662 58.4629 85.3747 60.3041C84.1068 62.3093 82.5945 64.0176 80.8379 65.4288C79.1214 66.8255 77.341 67.8594 75.4967 68.5307ZM92.9156 61.9183C90.5902 62.7647 89.0262 62.0853 88.2236 59.8802C87.6982 58.4368 87.4772 56.7691 87.5605 54.8772C87.6693 52.9306 88.0405 50.9566 88.6742 48.9552C89.2933 46.9136 90.1111 44.9814 91.1275 43.1585C92.1294 41.2955 93.2736 39.6985 94.56 38.3676C95.8318 36.9966 97.1893 36.0484 98.6327 35.5231C101.199 34.5892 102.941 35.3851 103.861 37.911C104.459 39.5549 104.357 40.5227 103.555 40.8146C102.834 41.0772 102.349 40.8678 102.101 40.1862C101.999 39.9055 101.957 39.603 101.975 39.2786C102.018 38.8994 101.974 38.5295 101.843 38.1686C101.435 37.046 100.468 36.7619 98.9449 37.3165C96.4992 38.2066 94.1106 41.1873 91.7791 46.2586C91.2327 47.5018 90.7647 48.8981 90.3751 50.4474C89.9855 51.9968 89.7436 53.5151 89.6492 55.0024C89.5804 56.435 89.7503 57.7126 90.1589 58.8352C90.5529 59.9177 91.3513 60.2401 92.5541 59.8023C93.5965 59.4229 94.5824 58.7009 95.5116 57.6362C96.4809 56.5569 97.2826 55.5159 97.9165 54.5133C99.1991 52.5481 100.347 50.0872 101.359 47.1306C101.523 46.7077 101.731 46.1554 101.982 45.4737C102.233 44.7919 102.523 44.0282 102.851 43.1824C102.978 42.9089 103.182 42.7211 103.463 42.619C104.104 42.3855 104.542 42.5895 104.775 43.231L103.738 47.4908C103.031 50.2906 102.941 52.4121 103.466 53.8555C103.846 54.8979 104.537 55.2367 105.539 54.8719C106.381 54.5655 107.223 54.0093 108.065 53.2035C108.906 52.3976 109.568 51.6574 110.049 50.9829C111.025 49.674 111.989 48.1427 112.94 46.389C113.876 44.5953 114.752 42.8234 115.568 41.0735C115.67 40.8547 115.882 40.687 116.203 40.5702C116.804 40.3514 117.192 40.4825 117.367 40.9636C117.528 41.4046 117.43 42.0079 117.073 42.7736C116.053 44.961 115.113 46.8696 114.253 48.4993C113.378 50.0889 112.491 51.4561 111.591 52.601C110.99 53.3193 110.216 54.1233 109.268 55.013C108.321 55.9027 107.125 56.6102 105.682 57.1356C103.717 57.8506 102.355 57.1657 101.597 55.0809C101.305 54.279 101.164 53.581 101.175 52.9868C98.796 57.8029 96.0429 60.78 92.9156 61.9183ZM122.681 54.4218C121.559 54.8304 120.492 54.8325 119.483 54.4282C118.513 54.0092 117.831 53.2585 117.437 52.176C117.291 51.7751 117.216 51.5072 117.212 51.3723C117.118 52.8596 116.83 53.6908 116.349 53.8659C115.708 54.0994 115.248 53.8352 114.971 53.0735L115.197 39.0975C115.218 36.9103 115.317 34.6265 115.495 32.2461C115.659 29.8256 115.858 27.5053 116.095 25.2853C116.357 23.0106 116.611 20.9655 116.858 19.1501C117.131 17.28 117.361 15.789 117.546 14.6772C118.026 12.0051 118.629 9.856 119.354 8.23C120.104 6.54931 120.821 5.58493 121.502 5.33685C122.264 5.05958 122.798 5.34193 123.104 6.1839C123.28 6.66502 123.127 6.99314 122.645 7.16825C121.603 7.54767 120.614 10.3822 119.679 15.6717C119.373 17.3267 119.108 18.9672 118.882 20.593C118.682 22.1642 118.502 23.7281 118.342 25.2846C118.146 27.4901 117.961 29.8504 117.786 32.3657C117.612 34.881 117.442 37.5312 117.275 40.3162C117.897 37.9101 118.719 35.6134 119.739 33.4259C120.631 31.5119 121.666 29.8639 122.843 28.482C124.046 27.0454 125.389 26.0572 126.872 25.5172C128.516 24.9189 129.943 24.7855 131.153 25.1168C132.364 25.4482 133.312 26.5561 133.998 28.4405C134.567 30.0041 134.711 31.8358 134.431 33.9356C134.191 36.0207 133.656 38.1679 132.825 40.3772C132.035 42.5719 131.053 44.6773 129.88 46.6935C128.732 48.655 127.523 50.3212 126.251 51.6922C124.994 53.1033 123.804 54.0132 122.681 54.4218ZM121.778 52.5028C122.981 52.065 124.151 51.1625 125.288 49.7951C126.44 48.4679 127.496 46.8801 128.458 45.0317C129.42 43.1833 130.225 41.2784 130.873 39.317C131.507 37.3156 131.915 35.4418 132.096 33.6957C132.263 31.9094 132.135 30.435 131.712 29.2723C131.056 27.4681 129.825 26.8943 128.021 27.551C126.417 28.1347 125.029 29.1849 123.855 30.7017C122.682 32.2185 121.665 34.0414 120.806 36.1705C119.986 38.285 119.305 40.5307 118.763 42.9075C118.22 45.2844 117.785 47.6448 117.458 49.9888C117.688 49.4967 117.963 49.1922 118.283 49.0755C118.845 48.8712 119.22 49.0296 119.41 49.5508C119.498 49.7914 119.492 50.0885 119.394 50.4421C119.357 50.5916 119.328 50.7611 119.307 50.9506C119.285 51.1402 119.332 51.3954 119.449 51.7161C119.799 52.6783 120.576 52.9406 121.778 52.5028Z" fill="#E2EAF7"/>
<path d="M19.2313 96.5695L140.063 52.5904L141.158 55.5974L20.3258 99.5765L19.2313 96.5695Z" fill="#E2EAF7"/>
</svg>
